<svg width="1920" height="1080" viewBox="0 0 1920 1080" fill="none" xmlns="http://www.w3.org/2000/svg">
<rect width="1920" height="1080" fill="url(#paint0_linear_1_820)"/>
<g filter="url(#filter0_d_1_820)">
<rect x="795" y="173" width="330" height="734" rx="10" fill="white" shape-rendering="crispEdges"/>
<path d="M821.512 200.968H825.464V206.568C824.845 206.771 824.221 206.92 823.592 207.016C822.963 207.112 822.248 207.16 821.448 207.16C820.264 207.16 819.267 206.925 818.456 206.456C817.645 205.976 817.027 205.299 816.6 204.424C816.184 203.539 815.976 202.493 815.976 201.288C815.976 200.093 816.211 199.059 816.68 198.184C817.149 197.309 817.821 196.632 818.696 196.152C819.581 195.661 820.648 195.416 821.896 195.416C822.536 195.416 823.139 195.475 823.704 195.592C824.28 195.709 824.813 195.875 825.304 196.088L824.76 197.336C824.355 197.155 823.896 197 823.384 196.872C822.883 196.744 822.36 196.68 821.816 196.68C820.909 196.68 820.131 196.867 819.48 197.24C818.829 197.613 818.333 198.147 817.992 198.84C817.651 199.523 817.48 200.339 817.48 201.288C817.48 202.195 817.624 203 817.912 203.704C818.211 204.397 818.675 204.941 819.304 205.336C819.933 205.72 820.76 205.912 821.784 205.912C822.125 205.912 822.424 205.901 822.68 205.88C822.947 205.848 823.187 205.811 823.4 205.768C823.624 205.725 823.832 205.683 824.024 205.64V202.248H821.512V200.968ZM832.001 198.264C832.161 198.264 832.331 198.275 832.513 198.296C832.705 198.307 832.87 198.328 833.009 198.36L832.833 199.656C832.694 199.624 832.539 199.597 832.369 199.576C832.209 199.555 832.054 199.544 831.905 199.544C831.574 199.544 831.259 199.613 830.961 199.752C830.662 199.891 830.395 200.088 830.161 200.344C829.926 200.589 829.739 200.888 829.601 201.24C829.473 201.592 829.409 201.987 829.409 202.424V207H828.001V198.424H829.153L829.313 199.992H829.377C829.558 199.672 829.777 199.384 830.033 199.128C830.289 198.861 830.582 198.653 830.913 198.504C831.243 198.344 831.606 198.264 832.001 198.264ZM837.546 198.28C838.591 198.28 839.364 198.509 839.866 198.968C840.367 199.427 840.618 200.157 840.618 201.16V207H839.594L839.322 205.784H839.258C839.012 206.093 838.756 206.355 838.49 206.568C838.234 206.771 837.935 206.92 837.594 207.016C837.263 207.112 836.858 207.16 836.378 207.16C835.866 207.16 835.402 207.069 834.986 206.888C834.58 206.707 834.26 206.429 834.026 206.056C833.791 205.672 833.674 205.192 833.674 204.616C833.674 203.763 834.01 203.107 834.682 202.648C835.354 202.179 836.388 201.923 837.786 201.88L839.242 201.832V201.32C839.242 200.605 839.087 200.109 838.778 199.832C838.468 199.555 838.031 199.416 837.466 199.416C837.018 199.416 836.591 199.485 836.186 199.624C835.78 199.752 835.402 199.901 835.049 200.072L834.618 199.016C834.991 198.813 835.434 198.643 835.946 198.504C836.458 198.355 836.991 198.28 837.546 198.28ZM837.962 202.856C836.895 202.899 836.154 203.069 835.738 203.368C835.332 203.667 835.13 204.088 835.13 204.632C835.13 205.112 835.274 205.464 835.562 205.688C835.86 205.912 836.239 206.024 836.698 206.024C837.423 206.024 838.026 205.827 838.506 205.432C838.986 205.027 839.226 204.408 839.226 203.576V202.808L837.962 202.856ZM847.394 198.264C848.418 198.264 849.192 198.515 849.714 199.016C850.237 199.507 850.498 200.307 850.498 201.416V207H849.106V201.512C849.106 200.819 848.952 200.301 848.642 199.96C848.333 199.619 847.848 199.448 847.186 199.448C846.237 199.448 845.581 199.715 845.218 200.248C844.856 200.781 844.674 201.549 844.674 202.552V207H843.266V198.424H844.402L844.61 199.592H844.69C844.882 199.293 845.117 199.048 845.394 198.856C845.682 198.653 845.997 198.504 846.338 198.408C846.68 198.312 847.032 198.264 847.394 198.264ZM856.197 207.16C855.13 207.16 854.277 206.792 853.637 206.056C852.997 205.309 852.677 204.2 852.677 202.728C852.677 201.256 852.997 200.147 853.637 199.4C854.288 198.643 855.146 198.264 856.213 198.264C856.661 198.264 857.05 198.323 857.381 198.44C857.712 198.547 858 198.696 858.245 198.888C858.49 199.08 858.698 199.293 858.869 199.528H858.965C858.954 199.389 858.933 199.187 858.901 198.92C858.88 198.643 858.869 198.424 858.869 198.264V194.84H860.277V207H859.141L858.933 205.848H858.869C858.698 206.093 858.49 206.317 858.245 206.52C858 206.712 857.706 206.867 857.365 206.984C857.034 207.101 856.645 207.16 856.197 207.16ZM856.421 205.992C857.328 205.992 857.962 205.747 858.325 205.256C858.698 204.755 858.885 204.003 858.885 203V202.744C858.885 201.677 858.709 200.861 858.357 200.296C858.005 199.72 857.354 199.432 856.405 199.432C855.648 199.432 855.077 199.736 854.693 200.344C854.32 200.941 854.133 201.747 854.133 202.76C854.133 203.784 854.32 204.579 854.693 205.144C855.077 205.709 855.653 205.992 856.421 205.992ZM870.965 207H869.525V196.84H865.957V195.576H874.517V196.84H870.965V207ZM882.378 202.696C882.378 203.411 882.283 204.045 882.091 204.6C881.909 205.144 881.643 205.608 881.291 205.992C880.949 206.376 880.528 206.669 880.027 206.872C879.536 207.064 878.987 207.16 878.379 207.16C877.813 207.16 877.291 207.064 876.811 206.872C876.331 206.669 875.915 206.376 875.562 205.992C875.211 205.608 874.933 205.144 874.731 204.6C874.539 204.045 874.443 203.411 874.443 202.696C874.443 201.747 874.603 200.947 874.923 200.296C875.243 199.635 875.701 199.133 876.299 198.792C876.896 198.44 877.605 198.264 878.427 198.264C879.205 198.264 879.888 198.44 880.475 198.792C881.072 199.133 881.536 199.635 881.867 200.296C882.208 200.947 882.378 201.747 882.378 202.696ZM875.899 202.696C875.899 203.368 875.984 203.955 876.155 204.456C876.336 204.947 876.613 205.325 876.987 205.592C877.36 205.859 877.835 205.992 878.411 205.992C878.987 205.992 879.461 205.859 879.835 205.592C880.208 205.325 880.48 204.947 880.651 204.456C880.832 203.955 880.923 203.368 880.923 202.696C880.923 202.013 880.832 201.432 880.651 200.952C880.469 200.472 880.192 200.104 879.819 199.848C879.456 199.581 878.981 199.448 878.395 199.448C877.52 199.448 876.885 199.736 876.491 200.312C876.096 200.888 875.899 201.683 875.899 202.696ZM887.474 206.008C887.687 206.008 887.906 205.992 888.13 205.96C888.354 205.917 888.535 205.875 888.674 205.832V206.904C888.525 206.979 888.311 207.037 888.034 207.08C887.757 207.133 887.49 207.16 887.234 207.16C886.786 207.16 886.37 207.085 885.986 206.936C885.613 206.776 885.309 206.504 885.074 206.12C884.839 205.736 884.722 205.197 884.722 204.504V199.512H883.506V198.84L884.738 198.28L885.298 196.456H886.13V198.424H888.61V199.512H886.13V204.472C886.13 204.995 886.253 205.384 886.498 205.64C886.754 205.885 887.079 206.008 887.474 206.008ZM893.639 198.28C894.685 198.28 895.458 198.509 895.959 198.968C896.461 199.427 896.711 200.157 896.711 201.16V207H895.687L895.415 205.784H895.351C895.106 206.093 894.85 206.355 894.583 206.568C894.327 206.771 894.029 206.92 893.687 207.016C893.357 207.112 892.951 207.16 892.471 207.16C891.959 207.16 891.495 207.069 891.079 206.888C890.674 206.707 890.354 206.429 890.119 206.056C889.885 205.672 889.767 205.192 889.767 204.616C889.767 203.763 890.103 203.107 890.775 202.648C891.447 202.179 892.482 201.923 893.879 201.88L895.335 201.832V201.32C895.335 200.605 895.181 200.109 894.871 199.832C894.562 199.555 894.125 199.416 893.559 199.416C893.111 199.416 892.685 199.485 892.279 199.624C891.874 199.752 891.495 199.901 891.143 200.072L890.711 199.016C891.085 198.813 891.527 198.643 892.039 198.504C892.551 198.355 893.085 198.28 893.639 198.28ZM894.055 202.856C892.989 202.899 892.247 203.069 891.831 203.368C891.426 203.667 891.223 204.088 891.223 204.632C891.223 205.112 891.367 205.464 891.655 205.688C891.954 205.912 892.333 206.024 892.791 206.024C893.517 206.024 894.119 205.827 894.599 205.432C895.079 205.027 895.319 204.408 895.319 203.576V202.808L894.055 202.856ZM900.768 207H899.36V194.84H900.768V207Z" fill="black"/>
<rect x="822" y="388" width="60" height="60" rx="30" fill="#FFD5D8"/>
<path d="M840.767 424.5L845.279 410.184H846.949L851.754 424.5H849.976L848.609 420.164H843.707L842.418 424.5H840.767ZM844.156 418.621H848.131L846.91 414.656C846.532 413.439 846.256 412.449 846.08 411.688C845.93 412.605 845.719 413.517 845.445 414.422L844.156 418.621ZM861.324 419.48L862.887 419.959C862.542 421.567 861.936 422.768 861.07 423.562C860.211 424.35 859.163 424.744 857.926 424.744C856.838 424.744 855.907 424.48 855.133 423.953C854.364 423.419 853.733 422.566 853.238 421.395C852.75 420.223 852.506 418.839 852.506 417.244C852.506 415.669 852.75 414.337 853.238 413.25C853.733 412.156 854.4 411.333 855.24 410.779C856.08 410.219 857.017 409.939 858.053 409.939C859.185 409.939 860.159 410.294 860.973 411.004C861.786 411.707 862.356 412.742 862.682 414.109L861.158 414.549C860.637 412.557 859.592 411.561 858.023 411.561C857.242 411.561 856.565 411.762 855.992 412.166C855.419 412.563 854.96 413.185 854.615 414.031C854.277 414.878 854.107 415.949 854.107 417.244C854.107 419.204 854.452 420.675 855.142 421.658C855.833 422.635 856.751 423.123 857.896 423.123C858.743 423.123 859.472 422.824 860.084 422.225C860.702 421.619 861.116 420.704 861.324 419.48Z" fill="#FC4552"/>
<rect x="822" y="460" width="60" height="60" rx="30" fill="#FFD5D8"/>
<path d="M855.861 491.48L857.423 491.959C857.078 493.567 856.473 494.768 855.607 495.562C854.747 496.35 853.699 496.744 852.462 496.744C851.375 496.744 850.444 496.48 849.669 495.953C848.901 495.419 848.27 494.566 847.775 493.395C847.287 492.223 847.042 490.839 847.042 489.244C847.042 487.669 847.287 486.337 847.775 485.25C848.27 484.156 848.937 483.333 849.777 482.779C850.617 482.219 851.554 481.939 852.589 481.939C853.722 481.939 854.695 482.294 855.509 483.004C856.323 483.707 856.893 484.742 857.218 486.109L855.695 486.549C855.174 484.557 854.129 483.561 852.56 483.561C851.779 483.561 851.102 483.762 850.529 484.166C849.956 484.563 849.497 485.185 849.152 486.031C848.813 486.878 848.644 487.949 848.644 489.244C848.644 491.204 848.989 492.675 849.679 493.658C850.369 494.635 851.287 495.123 852.433 495.123C853.279 495.123 854.009 494.824 854.62 494.225C855.239 493.619 855.652 492.704 855.861 491.48Z" fill="#FC4552"/>
<rect x="894" y="460" width="60" height="60" rx="30" fill="#FFD0FB"/>
<path d="M923.147 487.496V485.494H925.148V487.496H923.147ZM928.879 490.26H919.426V488.619H928.879V490.26ZM923.147 493.385V491.383H925.148V493.385H923.147Z" fill="#F967F3"/>
<rect x="966" y="460" width="60" height="60" rx="30" fill="#FFD0FB"/>
<path d="M992.646 492.506L995.176 489.43L992.656 486.363L993.633 485.172L996.152 488.238L998.652 485.182L999.619 486.363L997.109 489.42L999.629 492.486L998.652 493.678L996.133 490.611L993.613 493.688L992.646 492.506Z" fill="#F967F3"/>
<rect x="1038" y="460" width="60" height="60" rx="30" fill="#FFD0FB"/>
<path d="M1064.26 490.24V488.6L1072.03 484.596V486.344L1065.87 489.43L1072.03 492.545V494.293L1064.26 490.24Z" fill="#F967F3"/>
<rect x="822" y="532" width="60" height="60" rx="30" fill="#C3EAFF"/>
<path d="M848.36 556.059V554.369H855.957V555.736C854.825 557.208 853.828 559.125 852.969 561.488C852.11 563.845 851.615 566.182 851.485 568.5H850C850.02 567.302 850.209 565.906 850.567 564.311C850.931 562.715 851.429 561.195 852.061 559.75C852.692 558.305 853.373 557.074 854.102 556.059H848.36Z" fill="black"/>
<rect x="894" y="532" width="60" height="60" rx="30" fill="#C3EAFF"/>
<path d="M922.479 560.736C921.899 560.476 921.46 560.105 921.16 559.623C920.867 559.135 920.721 558.529 920.721 557.807C920.721 556.719 921.04 555.834 921.678 555.15C922.323 554.467 923.13 554.125 924.1 554.125C925.076 554.125 925.887 554.473 926.532 555.17C927.183 555.867 927.508 556.765 927.508 557.865C927.508 558.555 927.365 559.141 927.078 559.623C926.792 560.098 926.359 560.469 925.78 560.736C926.489 561.016 927.033 561.469 927.41 562.094C927.795 562.719 927.987 563.493 927.987 564.418C927.987 565.694 927.616 566.736 926.873 567.543C926.138 568.344 925.223 568.744 924.129 568.744C923.022 568.744 922.098 568.344 921.356 567.543C920.62 566.736 920.252 565.678 920.252 564.369C920.252 563.412 920.448 562.624 920.838 562.006C921.235 561.381 921.782 560.958 922.479 560.736ZM922.205 557.758C922.205 558.461 922.391 559.021 922.762 559.438C923.133 559.854 923.589 560.062 924.129 560.062C924.657 560.062 925.106 559.857 925.477 559.447C925.848 559.037 926.033 558.507 926.033 557.855C926.033 557.185 925.841 556.638 925.457 556.215C925.08 555.785 924.63 555.57 924.11 555.57C923.589 555.57 923.14 555.779 922.762 556.195C922.391 556.612 922.205 557.133 922.205 557.758ZM921.727 564.369C921.727 565.248 921.961 565.958 922.43 566.498C922.905 567.032 923.472 567.299 924.129 567.299C924.793 567.299 925.356 567.038 925.819 566.518C926.281 565.997 926.512 565.3 926.512 564.428C926.512 563.549 926.274 562.842 925.799 562.309C925.324 561.768 924.754 561.498 924.09 561.498C923.433 561.498 922.873 561.765 922.41 562.299C921.955 562.833 921.727 563.523 921.727 564.369Z" fill="black"/>
<rect x="966" y="532" width="60" height="60" rx="30" fill="#C3EAFF"/>
<path d="M992.477 565.189L993.864 565.033C994.085 566.544 994.736 567.299 995.817 567.299C996.299 567.299 996.735 567.136 997.125 566.811C997.522 566.479 997.858 565.893 998.131 565.053C998.405 564.213 998.541 563.233 998.541 562.113V561.762C998.242 562.341 997.838 562.8 997.33 563.139C996.823 563.477 996.305 563.646 995.778 563.646C994.821 563.646 993.994 563.23 993.297 562.396C992.607 561.557 992.262 560.411 992.262 558.959C992.262 557.462 992.62 556.283 993.336 555.424C994.059 554.558 994.935 554.125 995.963 554.125C996.692 554.125 997.373 554.366 998.004 554.848C998.636 555.329 999.124 556.039 999.469 556.977C999.814 557.914 999.987 559.265 999.987 561.029C999.987 562.995 999.801 564.522 999.43 565.609C999.059 566.697 998.554 567.491 997.916 567.992C997.285 568.493 996.575 568.744 995.787 568.744C994.896 568.744 994.15 568.441 993.551 567.836C992.952 567.224 992.594 566.342 992.477 565.189ZM998.385 558.871C998.385 557.849 998.157 557.045 997.702 556.459C997.246 555.873 996.722 555.58 996.129 555.58C995.511 555.58 994.957 555.893 994.469 556.518C993.987 557.143 993.746 557.976 993.746 559.018C993.746 559.955 993.978 560.704 994.44 561.264C994.902 561.817 995.455 562.094 996.1 562.094C996.738 562.094 997.278 561.814 997.721 561.254C998.164 560.694 998.385 559.9 998.385 558.871Z" fill="black"/>
<rect x="1038" y="532" width="60" height="60" rx="30" fill="#FFD0FB"/>
<path d="M1065.95 564.203V562.436H1070.37V564.203H1065.95Z" fill="#F967F3"/>
<rect x="822" y="604" width="60" height="60" rx="30" fill="#C3EAFF"/>
<path d="M852.881 640.5V637.072H847.793V635.461L853.155 626.184H854.326V635.461H855.918V637.072H854.326V640.5H852.881ZM852.881 635.461V629.006L849.209 635.461H852.881Z" fill="black"/>
<rect x="894" y="604" width="60" height="60" rx="30" fill="#C3EAFF"/>
<path d="M920.262 636.75L921.776 636.594C921.893 637.505 922.157 638.186 922.567 638.635C922.983 639.077 923.465 639.299 924.012 639.299C924.696 639.299 925.285 638.986 925.78 638.361C926.274 637.73 926.522 636.87 926.522 635.783C926.522 634.761 926.281 633.97 925.799 633.41C925.324 632.844 924.725 632.561 924.002 632.561C923.566 632.561 923.156 632.684 922.772 632.932C922.394 633.173 922.095 633.511 921.873 633.947L920.516 633.732L921.658 626.379H927.489V628.059H922.811L922.176 631.906C922.873 631.307 923.612 631.008 924.393 631.008C925.376 631.008 926.229 631.428 926.951 632.268C927.681 633.101 928.045 634.227 928.045 635.646C928.045 637.046 927.681 638.247 926.951 639.25C926.229 640.246 925.255 640.744 924.032 640.744C923.016 640.744 922.157 640.393 921.453 639.689C920.757 638.98 920.36 638 920.262 636.75Z" fill="black"/>
<rect x="966" y="604" width="60" height="60" rx="30" fill="#C3EAFF"/>
<path d="M999.743 629.689L998.307 629.826C998.17 629.09 997.968 628.566 997.702 628.254C997.317 627.798 996.855 627.57 996.315 627.57C995.475 627.57 994.801 628.091 994.293 629.133C993.857 630.031 993.636 631.359 993.629 633.117C993.961 632.492 994.378 632.02 994.879 631.701C995.381 631.376 995.911 631.213 996.471 631.213C997.402 631.213 998.213 631.636 998.903 632.482C999.599 633.322 999.948 634.449 999.948 635.861C999.948 636.818 999.772 637.688 999.42 638.469C999.075 639.243 998.629 639.816 998.082 640.188C997.536 640.559 996.933 640.744 996.276 640.744C995.091 640.744 994.114 640.21 993.346 639.143C992.578 638.075 992.194 636.294 992.194 633.801C992.194 631.034 992.588 629.064 993.375 627.893C994.163 626.714 995.172 626.125 996.403 626.125C997.295 626.125 998.04 626.431 998.639 627.043C999.244 627.648 999.612 628.531 999.743 629.689ZM993.854 635.861C993.854 636.896 994.098 637.73 994.586 638.361C995.075 638.986 995.641 639.299 996.286 639.299C996.852 639.299 997.356 639.003 997.799 638.41C998.248 637.818 998.473 637.004 998.473 635.969C998.473 634.953 998.252 634.165 997.809 633.605C997.366 633.046 996.826 632.766 996.188 632.766C995.563 632.766 995.016 633.046 994.547 633.605C994.085 634.159 993.854 634.911 993.854 635.861Z" fill="black"/>
<rect x="1038" y="604" width="60" height="60" rx="30" fill="#FFD0FB"/>
<path d="M1067.47 638.186V634.26H1064.28V632.619H1067.47V628.723H1068.84V632.619H1072.03V634.26H1068.84V638.186H1067.47Z" fill="#F967F3"/>
<rect x="822" y="676" width="60" height="60" rx="30" fill="#C3EAFF"/>
<path d="M853.692 712.5H852.246V701.299C851.914 701.689 851.468 702.09 850.908 702.5C850.349 702.904 849.834 703.21 849.366 703.418V701.719C850.16 701.263 850.86 700.706 851.465 700.049C852.077 699.391 852.507 698.75 852.754 698.125H853.692V712.5Z" fill="black"/>
<rect x="894" y="676" width="60" height="60" rx="30" fill="#C3EAFF"/>
<path d="M927.86 710.811V712.5H920.096C920.076 711.816 920.282 711.051 920.711 710.205C921.147 709.359 921.942 708.359 923.094 707.207C924.442 705.866 925.324 704.831 925.741 704.102C926.157 703.366 926.366 702.682 926.366 702.051C926.366 701.322 926.151 700.729 925.721 700.273C925.298 699.811 924.774 699.58 924.149 699.58C923.478 699.58 922.928 699.827 922.498 700.322C922.069 700.817 921.854 701.527 921.854 702.451L920.369 702.266C920.474 700.892 920.861 699.86 921.532 699.17C922.209 698.473 923.097 698.125 924.198 698.125C925.395 698.125 926.3 698.529 926.912 699.336C927.531 700.143 927.84 701.061 927.84 702.09C927.84 703.001 927.599 703.877 927.117 704.717C926.636 705.55 925.721 706.663 924.373 708.057C923.514 708.936 922.957 709.535 922.703 709.854C922.456 710.173 922.254 710.492 922.098 710.811H927.86Z" fill="black"/>
<rect x="966" y="676" width="60" height="60" rx="30" fill="#C3EAFF"/>
<path d="M992.272 708.721L993.717 708.486C994.017 710.361 994.775 711.299 995.993 711.299C996.65 711.299 997.22 711.022 997.702 710.469C998.183 709.909 998.424 709.186 998.424 708.301C998.424 707.467 998.203 706.797 997.76 706.289C997.317 705.781 996.774 705.527 996.129 705.527C995.856 705.527 995.517 705.592 995.114 705.723L995.28 704.18L995.504 704.199C996.214 704.199 996.79 703.981 997.233 703.545C997.675 703.109 997.897 702.526 997.897 701.797C997.897 701.126 997.711 700.589 997.34 700.186C996.969 699.775 996.517 699.57 995.983 699.57C995.429 699.57 994.961 699.785 994.577 700.215C994.199 700.638 993.958 701.283 993.854 702.148L992.418 701.836C992.601 700.612 993.011 699.688 993.649 699.062C994.287 698.438 995.058 698.125 995.963 698.125C996.914 698.125 997.721 698.477 998.385 699.18C999.049 699.883 999.381 700.768 999.381 701.836C999.381 702.487 999.238 703.063 998.952 703.564C998.672 704.066 998.278 704.46 997.77 704.746C998.239 704.876 998.626 705.091 998.932 705.391C999.238 705.69 999.485 706.09 999.674 706.592C999.863 707.093 999.957 707.653 999.957 708.271C999.957 709.587 999.57 710.664 998.795 711.504C998.021 712.337 997.093 712.754 996.012 712.754C995.009 712.754 994.16 712.389 993.463 711.66C992.767 710.931 992.369 709.951 992.272 708.721Z" fill="black"/>
<rect x="1038" y="677" width="60" height="130" rx="30" fill="#ADF9E7"/>
<path d="M1072.03 740.082H1064.28V738.441H1072.03V740.082ZM1072.03 744.428H1064.28V742.787H1072.03V744.428Z" fill="black"/>
<rect x="822" y="748" width="60" height="60" rx="30" fill="#FFD0FB"/>
<path d="M853.26 788.709C852.544 787.589 851.889 786.209 851.297 784.568C850.711 782.928 850.418 781.173 850.418 779.305C850.418 776.141 851.365 773.019 853.26 769.939H854.295C853.566 771.469 853.061 772.658 852.781 773.504C852.508 774.344 852.29 775.268 852.127 776.277C851.971 777.286 851.892 778.302 851.892 779.324C851.892 782.449 852.693 785.577 854.295 788.709H853.26Z" fill="#F967F3"/>
<rect x="894" y="748" width="60" height="60" rx="30" fill="#C3EAFF"/>
<path d="M920.262 777.439C920.262 775.037 920.584 773.217 921.229 771.98C921.88 770.743 922.837 770.125 924.1 770.125C925.22 770.125 926.102 770.626 926.746 771.629C927.528 772.84 927.918 774.777 927.918 777.439C927.918 779.829 927.596 781.645 926.951 782.889C926.307 784.126 925.35 784.744 924.08 784.744C922.961 784.744 922.043 784.197 921.326 783.104C920.617 782.01 920.262 780.122 920.262 777.439ZM921.737 777.439C921.737 779.764 921.958 781.323 922.401 782.117C922.85 782.905 923.423 783.299 924.119 783.299C924.777 783.299 925.327 782.898 925.77 782.098C926.213 781.297 926.434 779.744 926.434 777.439C926.434 775.109 926.209 773.549 925.76 772.762C925.317 771.974 924.741 771.58 924.032 771.58C923.38 771.58 922.834 771.98 922.391 772.781C921.955 773.582 921.737 775.135 921.737 777.439Z" fill="black"/>
<rect x="966" y="748" width="60" height="60" rx="30" fill="#FFD0FB"/>
<path d="M995.062 788.709H994.027C995.622 785.577 996.42 782.449 996.42 779.324C996.42 778.302 996.338 777.286 996.176 776.277C996.019 775.268 995.805 774.344 995.531 773.504C995.258 772.658 994.756 771.469 994.027 769.939H995.062C996.957 773.019 997.904 776.141 997.904 779.305C997.904 781.121 997.621 782.85 997.055 784.49C996.488 786.124 995.824 787.531 995.062 788.709Z" fill="#F967F3"/>
<rect x="822" y="820" width="130" height="60" rx="30" fill="#BDF9AD"/>
<path d="M868.481 851.48L870.044 851.959C869.699 853.567 869.093 854.768 868.227 855.562C867.368 856.35 866.32 856.744 865.083 856.744C863.996 856.744 863.065 856.48 862.29 855.953C861.522 855.419 860.89 854.566 860.395 853.395C859.907 852.223 859.663 850.839 859.663 849.244C859.663 847.669 859.907 846.337 860.395 845.25C860.89 844.156 861.557 843.333 862.397 842.779C863.237 842.219 864.175 841.939 865.21 841.939C866.343 841.939 867.316 842.294 868.13 843.004C868.943 843.707 869.513 844.742 869.839 846.109L868.315 846.549C867.794 844.557 866.749 843.561 865.18 843.561C864.399 843.561 863.722 843.762 863.149 844.166C862.576 844.563 862.117 845.185 861.772 846.031C861.434 846.878 861.264 847.949 861.264 849.244C861.264 851.204 861.609 852.675 862.3 853.658C862.99 854.635 863.908 855.123 865.053 855.123C865.9 855.123 866.629 854.824 867.241 854.225C867.859 853.619 868.273 852.704 868.481 851.48ZM877.319 855.221C876.837 855.722 876.336 856.1 875.815 856.354C875.294 856.607 874.754 856.734 874.194 856.734C873.309 856.734 872.602 856.467 872.075 855.934C871.548 855.4 871.284 854.68 871.284 853.775C871.284 853.176 871.408 852.646 871.655 852.184C871.902 851.721 872.241 851.36 872.671 851.1C873.1 850.839 873.751 850.647 874.624 850.523C875.796 850.354 876.655 850.152 877.202 849.918L877.212 849.469C877.212 848.759 877.085 848.261 876.831 847.975C876.473 847.558 875.923 847.35 875.18 847.35C874.51 847.35 874.009 847.49 873.677 847.77C873.345 848.043 873.1 848.561 872.944 849.322L871.528 849.088C871.73 847.975 872.137 847.164 872.749 846.656C873.367 846.148 874.249 845.895 875.395 845.895C876.287 845.895 876.987 846.064 877.495 846.402C878.003 846.734 878.322 847.148 878.452 847.643C878.589 848.137 878.657 848.86 878.657 849.811V852.154C878.657 853.795 878.686 854.83 878.745 855.26C878.81 855.683 878.934 856.096 879.116 856.5H877.612C877.462 856.142 877.365 855.715 877.319 855.221ZM877.202 851.295C876.675 851.555 875.89 851.777 874.848 851.959C874.243 852.063 873.82 852.184 873.579 852.32C873.338 852.451 873.149 852.639 873.012 852.887C872.882 853.128 872.817 853.408 872.817 853.727C872.817 854.221 872.97 854.618 873.276 854.918C873.582 855.211 874.005 855.357 874.546 855.357C875.06 855.357 875.526 855.224 875.942 854.957C876.365 854.69 876.681 854.335 876.889 853.893C877.098 853.443 877.202 852.792 877.202 851.939V851.295ZM880.346 853.404L881.772 853.131C881.857 853.86 882.088 854.404 882.466 854.762C882.843 855.113 883.345 855.289 883.97 855.289C884.595 855.289 885.076 855.136 885.415 854.83C885.76 854.518 885.932 854.124 885.932 853.648C885.932 853.238 885.786 852.919 885.493 852.691C885.291 852.535 884.803 852.34 884.028 852.105C882.908 851.76 882.16 851.467 881.782 851.227C881.404 850.986 881.111 850.663 880.903 850.26C880.695 849.856 880.591 849.397 880.591 848.883C880.591 847.997 880.874 847.278 881.44 846.725C882.007 846.171 882.791 845.895 883.794 845.895C884.425 845.895 884.979 846.008 885.454 846.236C885.936 846.464 886.303 846.77 886.557 847.154C886.811 847.538 886.987 848.089 887.085 848.805L885.678 849.039C885.548 847.906 884.933 847.34 883.833 847.34C883.208 847.34 882.742 847.467 882.436 847.721C882.13 847.968 881.977 848.287 881.977 848.678C881.977 849.062 882.124 849.365 882.417 849.586C882.593 849.716 883.113 849.924 883.979 850.211C885.171 850.595 885.942 850.901 886.294 851.129C886.645 851.35 886.919 851.656 887.114 852.047C887.309 852.431 887.407 852.89 887.407 853.424C887.407 854.413 887.091 855.214 886.46 855.826C885.835 856.438 884.979 856.744 883.891 856.744C881.854 856.744 880.672 855.631 880.346 853.404ZM889.096 856.5V842.184H890.532V847.32C890.871 846.845 891.251 846.49 891.675 846.256C892.104 846.015 892.576 845.895 893.091 845.895C893.996 845.895 894.708 846.184 895.229 846.764C895.757 847.337 896.02 848.391 896.02 849.928V856.5H894.585V849.928C894.585 849.029 894.425 848.385 894.106 847.994C893.787 847.604 893.348 847.408 892.788 847.408C892.163 847.408 891.629 847.659 891.186 848.16C890.75 848.661 890.532 849.55 890.532 850.826V856.5H889.096ZM903.296 856.5V842.184H904.848V856.5H903.296ZM907.358 856.5V846.129H908.657V847.604C908.97 847.031 909.35 846.604 909.8 846.324C910.255 846.038 910.776 845.895 911.362 845.895C911.818 845.895 912.238 845.986 912.622 846.168C913.012 846.344 913.325 846.578 913.559 846.871C913.8 847.158 913.979 847.532 914.096 847.994C914.214 848.456 914.272 849.166 914.272 850.123V856.5H912.827V850.191C912.827 849.43 912.762 848.873 912.632 848.521C912.501 848.17 912.296 847.9 912.016 847.711C911.743 847.516 911.424 847.418 911.059 847.418C910.369 847.418 909.819 847.675 909.409 848.189C908.999 848.704 908.794 849.586 908.794 850.836V856.5H907.358Z" fill="black"/>
<rect x="966" y="820" width="130" height="60" rx="30" fill="#F9ADAD"/>
<path d="M1006.1 851.48L1007.66 851.959C1007.31 853.567 1006.71 854.768 1005.84 855.562C1004.98 856.35 1003.94 856.744 1002.7 856.744C1001.61 856.744 1000.68 856.48 999.905 855.953C999.137 855.419 998.505 854.566 998.011 853.395C997.522 852.223 997.278 850.839 997.278 849.244C997.278 847.669 997.522 846.337 998.011 845.25C998.505 844.156 999.173 843.333 1000.01 842.779C1000.85 842.219 1001.79 841.939 1002.83 841.939C1003.96 841.939 1004.93 842.294 1005.75 843.004C1006.56 843.707 1007.13 844.742 1007.45 846.109L1005.93 846.549C1005.41 844.557 1004.36 843.561 1002.8 843.561C1002.01 843.561 1001.34 843.762 1000.76 844.166C1000.19 844.563 999.733 845.185 999.388 846.031C999.049 846.878 998.88 847.949 998.88 849.244C998.88 851.204 999.225 852.675 999.915 853.658C1000.61 854.635 1001.52 855.123 1002.67 855.123C1003.52 855.123 1004.24 854.824 1004.86 854.225C1005.47 853.619 1005.89 852.704 1006.1 851.48ZM1014.93 855.221C1014.45 855.722 1013.95 856.1 1013.43 856.354C1012.91 856.607 1012.37 856.734 1011.81 856.734C1010.92 856.734 1010.22 856.467 1009.69 855.934C1009.16 855.4 1008.9 854.68 1008.9 853.775C1008.9 853.176 1009.02 852.646 1009.27 852.184C1009.52 851.721 1009.86 851.36 1010.29 851.1C1010.72 850.839 1011.37 850.647 1012.24 850.523C1013.41 850.354 1014.27 850.152 1014.82 849.918L1014.83 849.469C1014.83 848.759 1014.7 848.261 1014.45 847.975C1014.09 847.558 1013.54 847.35 1012.8 847.35C1012.13 847.35 1011.62 847.49 1011.29 847.77C1010.96 848.043 1010.72 848.561 1010.56 849.322L1009.14 849.088C1009.35 847.975 1009.75 847.164 1010.36 846.656C1010.98 846.148 1011.86 845.895 1013.01 845.895C1013.9 845.895 1014.6 846.064 1015.11 846.402C1015.62 846.734 1015.94 847.148 1016.07 847.643C1016.2 848.137 1016.27 848.86 1016.27 849.811V852.154C1016.27 853.795 1016.3 854.83 1016.36 855.26C1016.43 855.683 1016.55 856.096 1016.73 856.5H1015.23C1015.08 856.142 1014.98 855.715 1014.93 855.221ZM1014.82 851.295C1014.29 851.555 1013.51 851.777 1012.46 851.959C1011.86 852.063 1011.44 852.184 1011.19 852.32C1010.95 852.451 1010.76 852.639 1010.63 852.887C1010.5 853.128 1010.43 853.408 1010.43 853.727C1010.43 854.221 1010.59 854.618 1010.89 854.918C1011.2 855.211 1011.62 855.357 1012.16 855.357C1012.68 855.357 1013.14 855.224 1013.56 854.957C1013.98 854.69 1014.3 854.335 1014.5 853.893C1014.71 853.443 1014.82 852.792 1014.82 851.939V851.295ZM1017.96 853.404L1019.39 853.131C1019.47 853.86 1019.7 854.404 1020.08 854.762C1020.46 855.113 1020.96 855.289 1021.58 855.289C1022.21 855.289 1022.69 855.136 1023.03 854.83C1023.38 854.518 1023.55 854.124 1023.55 853.648C1023.55 853.238 1023.4 852.919 1023.11 852.691C1022.91 852.535 1022.42 852.34 1021.64 852.105C1020.52 851.76 1019.78 851.467 1019.4 851.227C1019.02 850.986 1018.73 850.663 1018.52 850.26C1018.31 849.856 1018.21 849.397 1018.21 848.883C1018.21 847.997 1018.49 847.278 1019.06 846.725C1019.62 846.171 1020.41 845.895 1021.41 845.895C1022.04 845.895 1022.59 846.008 1023.07 846.236C1023.55 846.464 1023.92 846.77 1024.17 847.154C1024.43 847.538 1024.6 848.089 1024.7 848.805L1023.29 849.039C1023.16 847.906 1022.55 847.34 1021.45 847.34C1020.82 847.34 1020.36 847.467 1020.05 847.721C1019.75 847.968 1019.59 848.287 1019.59 848.678C1019.59 849.062 1019.74 849.365 1020.03 849.586C1020.21 849.716 1020.73 849.924 1021.59 850.211C1022.79 850.595 1023.56 850.901 1023.91 851.129C1024.26 851.35 1024.53 851.656 1024.73 852.047C1024.92 852.431 1025.02 852.89 1025.02 853.424C1025.02 854.413 1024.71 855.214 1024.08 855.826C1023.45 856.438 1022.59 856.744 1021.51 856.744C1019.47 856.744 1018.29 855.631 1017.96 853.404ZM1026.71 856.5V842.184H1028.15V847.32C1028.49 846.845 1028.87 846.49 1029.29 846.256C1029.72 846.015 1030.19 845.895 1030.71 845.895C1031.61 845.895 1032.32 846.184 1032.84 846.764C1033.37 847.337 1033.64 848.391 1033.64 849.928V856.5H1032.2V849.928C1032.2 849.029 1032.04 848.385 1031.72 847.994C1031.4 847.604 1030.96 847.408 1030.4 847.408C1029.78 847.408 1029.24 847.659 1028.8 848.16C1028.37 848.661 1028.15 849.55 1028.15 850.826V856.5H1026.71ZM1040.18 849.527C1040.18 847.086 1040.72 845.211 1041.79 843.902C1042.86 842.587 1044.2 841.93 1045.8 841.93C1046.84 841.93 1047.78 842.223 1048.64 842.809C1049.49 843.395 1050.16 844.247 1050.66 845.367C1051.16 846.48 1051.41 847.809 1051.41 849.352C1051.41 851.474 1050.93 853.202 1049.96 854.537C1048.9 856.008 1047.51 856.744 1045.79 856.744C1044.06 856.744 1042.67 855.989 1041.61 854.479C1040.66 853.111 1040.18 851.461 1040.18 849.527ZM1041.78 849.557C1041.78 851.321 1042.17 852.691 1042.94 853.668C1043.72 854.638 1044.67 855.123 1045.78 855.123C1046.92 855.123 1047.88 854.632 1048.65 853.648C1049.42 852.665 1049.81 851.22 1049.81 849.312C1049.81 848.082 1049.61 846.982 1049.21 846.012C1048.91 845.27 1048.44 844.677 1047.83 844.234C1047.21 843.785 1046.54 843.561 1045.81 843.561C1044.64 843.561 1043.67 844.049 1042.91 845.025C1042.16 846.002 1041.78 847.512 1041.78 849.557ZM1058.75 856.5V854.977C1058.42 855.562 1058.03 856.002 1057.58 856.295C1057.13 856.588 1056.62 856.734 1056.06 856.734C1055.39 856.734 1054.81 856.555 1054.34 856.197C1053.86 855.833 1053.54 855.374 1053.38 854.82C1053.23 854.267 1053.15 853.512 1053.15 852.555V846.129H1054.58V851.881C1054.58 852.949 1054.64 853.665 1054.74 854.029C1054.85 854.387 1055.05 854.677 1055.33 854.898C1055.63 855.113 1055.96 855.221 1056.33 855.221C1057.02 855.221 1057.59 854.938 1058.03 854.371C1058.41 853.883 1058.6 852.988 1058.6 851.686V846.129H1060.04V856.5H1058.75ZM1065.51 854.928L1065.71 856.48C1065.31 856.585 1064.95 856.637 1064.63 856.637C1064.13 856.637 1063.73 856.539 1063.42 856.344C1063.11 856.142 1062.9 855.868 1062.79 855.523C1062.68 855.178 1062.62 854.492 1062.62 853.463V847.496H1061.57V846.129H1062.62V843.561L1064.06 842.506V846.129H1065.51V847.496H1064.06V853.561C1064.06 854.12 1064.1 854.482 1064.18 854.645C1064.31 854.879 1064.54 854.996 1064.88 854.996C1065.04 854.996 1065.25 854.973 1065.51 854.928Z" fill="black"/>
</g>
<defs>
<filter id="filter0_d_1_820" x="765" y="143" width="390" height="794" filterUnits="userSpaceOnUse" color-interpolation-filters="sRGB">
<feFlood flood-opacity="0" result="BackgroundImageFix"/>
<feColorMatrix in="SourceAlpha" type="matrix" values="0 0 0 0 0 0 0 0 0 0 0 0 0 0 0 0 0 0 127 0" result="hardAlpha"/>
<feOffset/>
<feGaussianBlur stdDeviation="15"/>
<feComposite in2="hardAlpha" operator="out"/>
<feColorMatrix type="matrix" values="0 0 0 0 0 0 0 0 0 0 0 0 0 0 0 0 0 0 1 0"/>
<feBlend mode="normal" in2="BackgroundImageFix" result="effect1_dropShadow_1_820"/>
<feBlend mode="normal" in="SourceGraphic" in2="effect1_dropShadow_1_820" result="shape"/>
</filter>
<linearGradient id="paint0_linear_1_820" x1="498.516" y1="-280.415" x2="1421.48" y2="1360.42" gradientUnits="userSpaceOnUse">
<stop stop-color="#4F33B0"/>
<stop offset="1" stop-color="#D235A5"/>
</linearGradient>
</defs>
</svg>
